<?xml version="1.0" encoding="utf-8"?>
<!-- Generator: Adobe Illustrator 24.1.0, SVG Export Plug-In . SVG Version: 6.00 Build 0)  -->
<svg version="1.1" id="Capa_1" xmlns="http://www.w3.org/2000/svg" xmlns:xlink="http://www.w3.org/1999/xlink" x="0px" y="0px"
	 viewBox="0 0 456.7 456.7" style="enable-background:new 0 0 456.7 456.7;" xml:space="preserve">
<style type="text/css">
	.st0{fill:#3399FF;}
</style>
<g>
	<g>
		<path class="st0" d="M448,138.9c-7.5-9.4-18.8-14.6-30.8-14.6h-17.9c-3.5-16-19.4-32-38.4-32H168c-13.2,0-24-10.8-24-24
			c0-22.1-17.9-40-40-40H40c-22.1,0-40,17.9-40,40v320c0,22.1,17.9,40,40,40h2.7c1.7,0.2,3.4,0,5.2,0H367
			c18.7,0,34.5-12.6,38.6-30.8l50.2-225.6C458.3,160.2,455.5,148.3,448,138.9z M16,68.3c0-13.2,10.8-24,24-24h64
			c13.2,0,24,10.8,24,24c0,22.1,17.9,40,40,40h192.8c10.1,0,18.8,8,21.9,16H97c-18.7,0-34.5,12.6-38.6,30.8L16,345.8V68.3z
			 M439.4,168.3l-50.2,225.9c-2.3,10.5-11.5,18.1-22.3,18.1H47.9c-7.2,0-13.9-3.4-18.4-9c-4.5-5.6-6.2-13-4.6-20l49.9-224.9
			c2.3-10.5,11.5-18.1,22.3-18.1h320.2c7,0,13.4,3.3,17.8,8.7C439.3,154.4,440.9,161.5,439.4,168.3z"/>
	</g>
</g>
</svg>
